<svg width="30" height="30" viewBox="0 0 30 30" fill="#1C2033" xmlns="http://www.w3.org/2000/svg">
    <path
        d="M16.5 15L27.9375 3.5625C28.3594 3.14062 28.3594 2.48437 27.9375 2.0625C27.5156 1.64062 26.8594 1.64062 26.4375 2.0625L15 13.5L3.5625 2.0625C3.14062 1.64062 2.48437 1.64062 2.0625 2.0625C1.64062 2.48437 1.64062 3.14062 2.0625 3.5625L13.5 15L2.0625 26.4375C1.64062 26.8594 1.64062 27.5156 2.0625 27.9375C2.25 28.125 2.53125 28.2656 2.8125 28.2656C3.09375 28.2656 3.375 28.1719 3.5625 27.9375L15 16.5L26.4375 27.9375C26.625 28.125 26.9063 28.2656 27.1875 28.2656C27.4688 28.2656 27.75 28.1719 27.9375 27.9375C28.3594 27.5156 28.3594 26.8594 27.9375 26.4375L16.5 15Z"
    />
</svg>