<svg viewBox="0 0 61 60" fill="#1C2033" xmlns="http://www.w3.org/2000/svg">
    <path
        d="M30.7833 1.68726C14.8458 1.68726 1.72076 14.6248 1.72076 30.7498C1.72076 43.4998 10.0645 54.3748 21.6895 58.3123C23.1895 58.5935 23.6583 57.656 23.6583 56.9998C23.6583 56.3435 23.6583 54.4685 23.5645 51.9373C15.502 53.8123 13.8145 47.9998 13.8145 47.9998C12.502 44.7185 10.5333 43.781 10.5333 43.781C7.90826 41.906 10.627 41.906 10.627 41.906C13.5333 41.9998 15.127 44.906 15.127 44.906C17.6583 49.406 21.9708 48.0935 23.5645 47.2498C23.8458 45.3748 24.5958 44.0623 25.4395 43.3123C19.0645 42.656 12.2208 40.1248 12.2208 29.0623C12.2208 25.8748 13.4395 23.3435 15.2208 21.3748C14.9395 20.7185 13.9083 17.7185 15.502 13.6873C15.502 13.6873 18.0333 12.9373 23.5645 16.6873C25.9083 16.031 28.3458 15.656 30.877 15.656C33.4083 15.656 35.9395 15.9373 38.1895 16.6873C43.7208 13.031 46.1583 13.6873 46.1583 13.6873C47.752 17.6248 46.8145 20.7185 46.4395 21.3748C48.3145 23.3435 49.4395 25.9685 49.4395 29.0623C49.4395 40.1248 42.5958 42.656 36.2208 43.3123C37.252 44.2498 38.1895 46.1248 38.1895 48.7498C38.1895 52.6873 38.0958 55.781 38.0958 56.7185C38.0958 57.4685 38.6583 58.3123 40.0645 58.031C51.502 54.1873 59.8458 43.406 59.8458 30.5623C59.752 14.6248 46.7208 1.68726 30.7833 1.68726Z"
    />
</svg>