<svg width="71" height="60" viewBox="0 0 71 60" fill="#1C2033" xmlns="http://www.w3.org/2000/svg">
<g clip-path="url(#clip0_158_31)">
<path d="M70.3518 9.09542V53.5355C70.3518 56.4221 68.2606 58.7642 65.6803 58.7642H54.7719V29.1383L36.0792 44.827L17.3865 29.1383V58.7667H6.48039C3.90011 58.7667 1.80893 56.4272 1.80893 53.5406V53.538V9.09798C1.80893 4.76673 4.94685 1.25366 8.8184 1.25366C10.4045 1.25366 11.8672 1.84429 13.0419 2.83633L13.0236 2.82099L36.0792 22.1684L59.1348 2.82099C60.2913 1.84173 61.7539 1.25366 63.34 1.25366C67.2116 1.25366 70.3518 4.76417 70.3518 9.09542Z"/>
</g>
<defs>
<clipPath id="clip0_158_31">
<rect width="70" height="60" transform="translate(0.783264)"/>
</clipPath>
</defs>
</svg>
