<svg viewBox="0 0 61 60" fill="#1C2033" xmlns="http://www.w3.org/2000/svg">
    <path
        d="M55.6285 0.9375H6.03473C3.69098 0.9375 1.81598 2.8125 1.81598 5.15625V54.8438C1.81598 57.0938 3.69098 59.0625 6.03473 59.0625H55.441C57.7848 59.0625 59.6598 57.1875 59.6598 54.8438V5.0625C59.8473 2.8125 57.9723 0.9375 55.6285 0.9375ZM18.9723 50.3438H10.441V22.6875H18.9723V50.3438ZM14.6598 18.8438C11.8473 18.8438 9.69098 16.5938 9.69098 13.875C9.69098 11.1563 11.941 8.90625 14.6598 8.90625C17.3785 8.90625 19.6285 11.1563 19.6285 13.875C19.6285 16.5938 17.566 18.8438 14.6598 18.8438ZM51.316 50.3438H42.7848V36.9375C42.7848 33.75 42.691 29.5312 38.2848 29.5312C33.7848 29.5312 33.1285 33.0937 33.1285 36.6562V50.3438H24.5973V22.6875H32.941V26.5312H33.0348C34.2535 24.2812 36.9723 22.0312 41.191 22.0312C49.9098 22.0312 51.5035 27.6563 51.5035 35.3438V50.3438H51.316Z"
    />
</svg>