<svg width="126" height="42" viewBox="0 0 126 42" fill="none" xmlns="http://www.w3.org/2000/svg">
<path d="M0 20.9865L10.2621 31.4932L20.5511 42L22.7059 39.8066L24.8606 37.6402L16.6456 29.381C12.1475 24.8588 8.51133 21.0948 8.5652 21.0135C8.88841 20.6886 17.9115 11.4275 21.2783 7.98839L24.9953 4.19729L20.8204 0L0 20.9865ZM100.951 4.19729L106.284 9.61315C109.193 12.5919 112.91 16.4101 114.553 18.089L117.516 21.1219L101.086 37.6402L103.24 39.8066L105.422 41.9729L111.186 36.0967C114.364 32.8472 118.997 28.1083 121.475 25.5899L126 20.9865L105.126 0L100.951 4.19729ZM27.7426 2.68085C27.7965 2.78917 31.1094 11.4004 35.0958 21.7718L42.3681 40.619L47.4857 40.5377L52.6032 40.4836L57.6131 27.648C60.3873 20.5803 62.7307 14.6228 62.8653 14.4062C63 14.1896 63.0808 19.6867 63.0539 27.3501L62.9731 40.646L86.5408 40.4836L88.5879 39.7795C92.4126 38.4797 94.9983 36.178 95.9949 33.1992C96.6413 31.3037 96.4258 27.3772 95.5909 25.7253C94.5135 23.6402 93.2475 22.2863 91.4699 21.4197C90.581 20.9594 89.6652 20.5803 89.4498 20.5803C88.7495 20.5803 89.1265 20.1741 90.2847 19.6867C91.7392 19.0909 93.7862 16.9516 94.5404 15.2456C95.4023 13.2689 95.3484 10.2631 94.3788 8.31335C93.5169 6.49903 91.9816 5.09091 89.746 4.03482C86.6216 2.51838 85.652 2.43714 70.9188 2.43714H57.4515L55.0543 9.4236C48.2668 29.2727 47.8089 30.4913 47.4857 29.7331C47.3241 29.3269 45.1424 23.0445 42.6375 15.7331L38.0586 2.43714H32.8602C29.9782 2.43714 27.6888 2.54545 27.7426 2.68085ZM83.174 10.3443C85.221 11.4275 85.9213 13.9458 84.6554 15.8685C83.7396 17.2766 82.4468 17.6015 77.3292 17.6015H72.6695V9.74855H77.3292C81.6118 9.74855 82.0697 9.80271 83.174 10.3443ZM84.0359 25.3733C85.7867 26.1857 86.46 27.323 86.3254 29.1915C86.2446 30.3017 86.056 30.7892 85.4365 31.4391C84.009 32.9555 83.2817 33.118 77.7871 33.1451L72.8042 33.1721L72.7234 29.2456C72.6964 27.1064 72.7234 25.1838 72.8042 24.9671C72.9119 24.6692 73.8277 24.6151 77.8679 24.6963C82.1774 24.7776 82.9316 24.8588 84.0359 25.3733Z" fill="#14003F"/>
</svg>
