<svg width="30" height="30" viewBox="0 0 30 30" fill="#1C2033" xmlns="http://www.w3.org/2000/svg">
    <path
        d="M28.125 13.4531H1.875C1.3125 13.4531 0.796875 14.1562 0.796875 15.0703C0.796875 15.9141 1.26562 16.6875 1.875 16.6875H28.125C28.6875 16.6875 29.2031 15.9844 29.2031 15.0703C29.2031 14.1562 28.6875 13.4531 28.125 13.4531Z"
    />
    <path
        d="M28.125 25.4062H1.875C1.3125 25.4062 0.796875 26.1094 0.796875 27.0234C0.796875 27.9375 1.26562 28.6406 1.875 28.6406H28.125C28.6875 28.6406 29.2031 27.9375 29.2031 27.0234C29.2031 26.1094 28.6875 25.4062 28.125 25.4062Z"
    />
    <path
        d="M1.875 4.59375H28.125C28.6875 4.59375 29.2031 3.89062 29.2031 2.97656C29.2031 2.0625 28.7344 1.35938 28.125 1.35938H1.875C1.3125 1.35938 0.796875 2.0625 0.796875 2.97656C0.796875 3.89062 1.3125 4.59375 1.875 4.59375Z"
    />
</svg>