<svg color="#1C2033" fill="none" viewBox="0 0 45 45" xmlns="http://www.w3.org/2000/svg">
<path d="M40.7812 12.6562H30.9375C28.5469 12.6562 26.7188 14.4844 26.7188 16.875V37.9688C26.7188 40.3594 28.5469 42.1875 30.9375 42.1875H40.7812C43.1719 42.1875 45 40.3594 45 37.9688V16.875C45 14.4844 43.1719 12.6562 40.7812 12.6562ZM37.9688 37.9688H33.75C32.9062 37.9688 32.3438 37.4062 32.3438 36.5625C32.3438 35.7188 32.9062 35.1562 33.75 35.1562H37.9688C38.8125 35.1562 39.375 35.7188 39.375 36.5625C39.375 37.4062 38.8125 37.9688 37.9688 37.9688ZM42.1875 30.9375H29.5312V16.875C29.5312 16.0312 30.0938 15.4688 30.9375 15.4688H40.7812C41.625 15.4688 42.1875 16.0312 42.1875 16.875V30.9375Z" fill="currentColor"/>
<path d="M23.9063 25.3125H7.03127V9.84375H30.9375H32.3438H35.1563V8.4375C35.1563 7.59375 34.5938 7.03125 33.75 7.03125H5.62502C4.78127 7.03125 4.21877 7.59375 4.21877 8.4375V25.3125C3.65627 25.3125 3.09377 25.5938 2.95315 26.1562L0.140649 33.1875C2.39387e-05 33.6094 2.39387e-05 34.1719 0.281274 34.4531C0.562524 34.7344 0.984399 35.1562 1.40627 35.1562H23.9063V25.3125Z" fill="currentColor"/>
</svg>
